<?xml version="1.0" standalone="no"?>
<!DOCTYPE svg PUBLIC "-//W3C//DTD SVG 20010904//EN"
 "http://www.w3.org/TR/2001/REC-SVG-20010904/DTD/svg10.dtd">
<svg version="1.0" xmlns="http://www.w3.org/2000/svg"
 width="480.000000pt" height="377.000000pt" viewBox="0 0 480.000000 377.000000"
 preserveAspectRatio="xMidYMid meet">

<g transform="translate(0.000000,377.000000) scale(0.100000,-0.100000)"
fill="#000000" stroke="none">
<path d="M0 1885 l0 -1885 2400 0 2400 0 0 1885 0 1885 -2400 0 -2400 0 0
-1885z m1314 550 c17 -25 22 -105 7 -105 -5 0 -14 -13 -21 -30 -7 -16 -21 -40
-32 -52 -44 -50 -70 -89 -64 -95 3 -3 6 0 6 7 0 7 2 11 5 8 9 -8 -16 -68 -26
-62 -5 3 -8 -3 -7 -13 3 -26 -23 -113 -34 -113 -5 0 -11 7 -14 15 -4 8 -10 13
-14 10 -4 -3 -15 7 -25 21 -30 47 4 151 107 318 78 128 85 133 112 91z m1118
1 c4 -6 8 -16 8 -22 0 -6 22 -14 50 -16 27 -3 56 -11 65 -18 23 -19 19 -75 -7
-104 -23 -24 -170 -108 -185 -105 -5 1 -12 -8 -18 -20 -5 -11 -13 -21 -17 -21
-4 0 -12 -10 -19 -21 -8 -16 -8 -20 1 -14 8 5 9 2 1 -11 -5 -11 -18 -47 -27
-81 -10 -36 -23 -63 -31 -63 -22 0 -53 39 -53 67 0 26 83 245 103 271 6 8 6
16 -1 25 -5 6 -12 23 -14 37 -2 18 3 28 24 37 14 7 36 29 47 49 17 29 25 34
44 28 12 -4 25 -12 29 -18z m382 -1 c17 -25 22 -105 7 -105 -5 0 -14 -14 -21
-31 -7 -17 -18 -36 -24 -42 -43 -46 -76 -90 -76 -100 1 -7 7 -1 15 13 19 33
19 21 0 -21 -8 -19 -15 -27 -15 -19 -1 10 -4 9 -10 -5 -12 -28 -12 -43 1 -25
9 12 9 11 3 -5 -4 -11 -14 -41 -23 -67 -8 -27 -18 -48 -22 -48 -15 0 -69 62
-69 80 0 46 46 156 110 265 87 146 96 154 124 110z m236 -20 c0 -28 2 -29 48
-16 53 16 131 -18 132 -56 0 -13 -70 -83 -84 -83 -6 0 -19 -8 -30 -19 -12 -10
-34 -22 -49 -27 l-28 -9 63 -64 c75 -77 112 -101 156 -101 29 0 32 3 27 20
-17 52 -7 102 39 196 25 53 46 106 46 119 0 14 7 26 19 30 10 3 26 14 36 25
12 14 31 20 58 20 38 0 39 -1 34 -29 -5 -25 -3 -30 21 -34 15 -3 36 -8 47 -10
11 -3 27 -6 35 -7 12 0 10 -4 -5 -16 -19 -16 -19 -16 5 -10 16 4 13 0 -10 -10
-19 -9 -61 -20 -93 -26 -54 -10 -107 -41 -93 -55 2 -3 28 1 57 8 50 13 52 13
70 -10 33 -41 29 -44 -110 -71 -56 -12 -65 -17 -77 -44 -7 -17 -13 -25 -14
-17 0 8 -2 12 -4 10 -3 -2 -1 -20 3 -39 l7 -35 68 -1 c44 -1 63 2 54 8 -9 7
-8 8 5 4 23 -7 73 4 58 13 -6 4 5 7 25 7 l35 0 -26 -13 c-14 -8 -25 -18 -25
-22 0 -5 -24 -15 -52 -22 -29 -7 -47 -14 -41 -16 7 -3 36 3 64 12 69 23 73 12
4 -14 -35 -13 -79 -21 -120 -21 -41 0 -80 -7 -110 -20 -26 -11 -56 -20 -67
-20 -40 0 -86 32 -138 96 -57 70 -116 134 -125 134 -12 0 -55 -103 -55 -133 0
-25 -6 -37 -24 -46 -30 -17 -42 -10 -56 34 -10 29 -8 43 9 89 26 70 138 296
158 318 21 23 53 6 53 -27z m-868 2 c27 -21 33 -65 13 -87 -22 -24 -35 -26
-35 -5 0 23 -47 19 -106 -9 -28 -13 -54 -28 -58 -34 -6 -9 94 -82 113 -82 17
0 31 -36 31 -77 0 -32 -6 -44 -32 -64 -50 -37 -71 -48 -95 -49 -13 0 -23 -4
-23 -9 0 -5 -17 -13 -37 -18 -50 -13 -105 16 -122 64 -19 51 4 70 41 36 17
-15 22 -15 72 0 29 10 62 27 72 38 19 21 19 21 -21 55 -22 18 -45 34 -51 34
-13 0 -29 37 -39 86 -5 26 -1 37 25 62 58 58 207 93 252 59z m-299 -13 l32
-17 -30 -21 c-47 -33 -120 -108 -138 -141 -21 -39 -51 -108 -77 -178 -21 -55
-22 -56 -53 -50 -53 9 -58 21 -63 139 -3 60 -7 115 -10 123 -7 21 -57 -31 -73
-76 -8 -21 -29 -71 -48 -110 -36 -80 -58 -92 -87 -48 -23 35 -20 78 11 142 30
60 146 203 166 203 7 0 28 -11 47 -24 26 -18 38 -36 50 -77 l16 -53 32 50 c18
27 37 49 41 49 10 0 81 75 81 86 0 8 23 16 53 18 10 0 32 -6 50 -15z m-149
-48 c-37 -46 -45 -37 -9 9 15 20 29 34 32 31 3 -2 -8 -20 -23 -40z m246 -777
c12 -29 16 -31 49 -24 98 18 121 18 141 0 11 -10 20 -30 20 -45 0 -30 -18 -39
-80 -41 -19 0 -61 -6 -94 -13 -51 -11 -61 -16 -77 -47 -10 -18 -18 -42 -19
-52 0 -10 -7 -20 -15 -23 -8 -4 -15 -17 -15 -30 0 -14 -6 -27 -13 -30 -7 -2
-13 -19 -14 -37 -1 -48 -19 -87 -42 -87 -51 0 -53 84 -7 197 19 45 32 84 29
87 -3 2 -27 2 -55 -1 -57 -6 -68 2 -68 53 l0 32 81 4 c72 3 83 6 99 28 52 70
62 73 80 29z m798 19 c7 -7 12 -23 12 -36 0 -19 4 -23 18 -17 42 16 73 16 111
-1 56 -24 61 -48 20 -90 -18 -19 -38 -34 -44 -34 -6 0 -22 -11 -35 -25 -13
-14 -30 -23 -38 -20 -8 3 -10 0 -6 -7 5 -8 2 -9 -9 -5 -40 15 -21 -16 52 -86
57 -55 89 -78 115 -82 37 -7 60 0 50 16 -3 6 -6 32 -6 59 1 37 12 69 46 139
25 50 46 102 46 115 0 16 8 30 23 37 12 6 31 19 42 29 14 13 30 16 53 13 31
-5 33 -8 28 -33 -5 -26 -3 -28 42 -34 26 -3 54 -11 62 -16 12 -7 10 -11 -10
-19 -14 -5 -19 -10 -12 -10 7 -1 22 4 33 9 10 6 19 8 19 5 0 -11 -64 -32 -132
-45 -41 -7 -73 -19 -84 -31 -23 -26 -12 -34 27 -20 50 17 77 13 95 -14 21 -33
13 -41 -48 -49 -85 -11 -129 -28 -141 -53 -5 -12 -13 -21 -16 -18 -4 2 -5 -12
-3 -31 2 -19 9 -34 16 -34 6 -1 35 -2 64 -4 33 -2 49 0 40 5 -8 6 -9 9 -1 9 6
0 20 3 30 6 15 5 16 4 3 -6 -13 -10 -12 -11 3 -6 10 3 24 6 30 6 9 0 9 2 0 8
-6 4 7 8 30 8 39 1 40 0 17 -10 -14 -6 -28 -16 -32 -22 -4 -6 -28 -17 -53 -24
-25 -7 -43 -15 -41 -17 3 -3 28 3 55 12 28 9 57 15 64 12 25 -9 -129 -48 -183
-46 -39 1 -68 -4 -100 -19 -25 -12 -53 -22 -63 -22 -28 0 -77 29 -105 62 -14
17 -30 35 -36 42 -6 6 -33 37 -60 69 -26 32 -53 56 -58 55 -6 -2 -21 -23 -33
-46 -12 -23 -24 -40 -26 -37 -3 2 -3 -13 -1 -33 3 -28 -2 -42 -17 -56 -20 -18
-22 -18 -40 -2 -45 40 -33 91 63 286 89 179 95 187 124 158z m-1116 -32 c27
-20 33 -69 12 -90 -17 -17 -18 -17 -30 -1 -15 20 -64 16 -116 -9 -17 -9 -36
-13 -42 -9 -6 3 -8 3 -4 -2 4 -4 3 -14 -2 -20 -8 -9 4 -22 44 -49 30 -20 58
-36 62 -36 16 0 33 -37 34 -73 0 -31 -6 -44 -31 -65 -44 -37 -70 -51 -96 -52
-12 0 -23 -5 -25 -10 -2 -6 -20 -13 -41 -17 -48 -7 -99 19 -115 59 -18 49 8
79 38 43 9 -11 22 -14 44 -9 49 10 116 45 116 60 0 7 -25 32 -55 55 -34 26
-57 51 -61 68 -3 14 -8 32 -10 39 -7 23 25 71 59 89 79 41 185 55 219 29z
m756 -17 c9 -11 37 -41 61 -65 55 -56 66 -112 32 -168 -12 -20 -26 -35 -30
-33 -5 1 -23 -10 -40 -25 -17 -16 -35 -28 -41 -28 -5 0 -10 -4 -10 -9 0 -10
-32 -23 -61 -26 -9 0 -24 -9 -33 -18 -47 -46 -168 1 -182 71 -16 82 26 178
107 244 93 75 164 96 197 57z m-1010 -520 c3 -11 2 -11 -7 1 -10 13 -12 13
-21 0 -5 -8 -10 -10 -10 -4 0 27 31 30 38 3z m1621 18 c-2 -1 -13 -9 -24 -17
-19 -14 -19 -14 -6 3 7 9 18 17 24 17 6 0 8 -1 6 -3z m-188 -68 c-9 -23 -10
-23 -10 -2 -1 12 2 30 6 40 6 15 8 15 11 2 1 -8 -2 -26 -7 -40z m-1384 19 c-3
-8 -6 -5 -6 6 -1 11 2 17 5 13 3 -3 4 -12 1 -19z m183 18 c0 -3 -4 -8 -10 -11
-5 -3 -10 -1 -10 4 0 6 5 11 10 11 6 0 10 -2 10 -4z m47 -28 c-3 -7 -5 -2 -5
12 0 14 2 19 5 13 2 -7 2 -19 0 -25z m120 26 c-3 -3 -12 -4 -19 -1 -8 3 -5 6
6 6 11 1 17 -2 13 -5z m140 -16 c-3 -8 -6 -5 -6 6 -1 11 2 17 5 13 3 -3 4 -12
1 -19z m270 16 c-3 -3 -12 -4 -19 -1 -8 3 -5 6 6 6 11 1 17 -2 13 -5z m45 -51
c-5 -101 -9 -111 -11 -25 0 45 2 82 7 82 4 0 6 -26 4 -57z m77 30 c-2 -24 -2
-25 -6 -5 -2 12 -9 20 -14 17 -5 -4 -9 -1 -9 4 0 6 7 11 15 11 10 0 15 -9 14
-27z m71 23 c0 -2 -7 -6 -15 -10 -8 -3 -15 -1 -15 4 0 6 7 10 15 10 8 0 15 -2
15 -4z m37 -18 c-3 -8 -6 -5 -6 6 -1 11 2 17 5 13 3 -3 4 -12 1 -19z m133 18
c0 -2 -7 -6 -15 -10 -8 -3 -15 -1 -15 4 0 6 7 10 15 10 8 0 15 -2 15 -4z m77
-43 c-3 -10 -5 -2 -5 17 0 19 2 27 5 18 2 -10 2 -26 0 -35z m133 43 c0 -11
-19 -15 -25 -6 -3 5 1 10 9 10 9 0 16 -2 16 -4z m527 -2 c-3 -3 -12 -4 -19 -1
-8 3 -5 6 6 6 11 1 17 -2 13 -5z m-1900 -41 c-3 -10 -5 -4 -5 12 0 17 2 24 5
18 2 -7 2 -21 0 -30z m730 5 c-3 -7 -5 -2 -5 12 0 14 2 19 5 13 2 -7 2 -19 0
-25z m360 10 c-3 -8 -6 -5 -6 6 -1 11 2 17 5 13 3 -3 4 -12 1 -19z m220 -10
c-3 -7 -5 -2 -5 12 0 14 2 19 5 13 2 -7 2 -19 0 -25z m520 0 c-3 -7 -5 -2 -5
12 0 14 2 19 5 13 2 -7 2 -19 0 -25z m-216 -93 c-11 -19 -11 -19 -6 2 3 12 -1
38 -10 58 -8 21 -15 43 -14 49 0 6 9 -11 20 -39 16 -38 18 -54 10 -70z m56 18
c-2 -21 -4 -6 -4 32 0 39 2 55 4 38 2 -18 2 -50 0 -70z m-1460 10 c-2 -16 -4
-3 -4 27 0 30 2 43 4 28 2 -16 2 -40 0 -55z m440 -15 c-2 -18 -4 -4 -4 32 0
36 2 50 4 33 2 -18 2 -48 0 -65z m1113 -18 c-12 -23 -31 -22 -38 1 -3 11 -2
11 7 -1 17 -23 30 4 33 65 l2 50 3 -47 c2 -26 -1 -57 -7 -68z m-1663 53 c-3
-10 -5 -2 -5 17 0 19 2 27 5 18 2 -10 2 -26 0 -35z m760 25 c-3 -8 -6 -5 -6 6
-1 11 2 17 5 13 3 -3 4 -12 1 -19z m-482 3 c3 -5 1 -12 -5 -16 -5 -3 -10 1
-10 9 0 18 6 21 15 7z m204 -85 c-9 -8 -10 -7 -5 7 3 10 7 35 8 55 1 35 2 35
5 -7 3 -26 -1 -48 -8 -55z m507 -4 c-11 -10 -12 3 -7 53 l6 50 3 -49 c2 -26 1
-51 -2 -54z m59 89 c3 -5 1 -12 -5 -16 -5 -3 -10 1 -10 9 0 18 6 21 15 7z m52
-13 c-3 -8 -6 -5 -6 6 -1 11 2 17 5 13 3 -3 4 -12 1 -19z m176 -80 c8 -5 6 -8
-5 -8 -15 0 -18 9 -16 58 l2 57 3 -50 c3 -27 10 -53 16 -57z m-1046 60 c-3 -7
-5 -2 -5 12 0 14 2 19 5 13 2 -7 2 -19 0 -25z m393 23 c0 -6 -4 -13 -10 -16
-5 -3 -10 1 -10 9 0 9 5 16 10 16 6 0 10 -4 10 -9z m70 5 c0 -3 -4 -8 -10 -11
-5 -3 -10 -1 -10 4 0 6 5 11 10 11 6 0 10 -2 10 -4z m119 -3 c0 -5 -4 -17 -9
-28 -8 -18 -9 -17 -9 8 -1 15 4 27 9 27 6 0 10 -3 9 -7z m391 -2 c0 -6 -4 -13
-10 -16 -5 -3 -10 1 -10 9 0 9 5 16 10 16 6 0 10 -4 10 -9z m520 -6 c0 -8 -4
-15 -10 -15 -5 0 -10 7 -10 15 0 8 5 15 10 15 6 0 10 -7 10 -15z m70 11 c0 -3
-4 -8 -10 -11 -5 -3 -10 -1 -10 4 0 6 5 11 10 11 6 0 10 -2 10 -4z m-1321 -51
c0 -5 -4 -3 -9 5 -5 8 -9 22 -9 30 0 16 17 -16 18 -35z m838 8 c-3 -10 -5 -4
-5 12 0 17 2 24 5 18 2 -7 2 -21 0 -30z m30 -10 c-3 -10 -5 -2 -5 17 0 19 2
27 5 18 2 -10 2 -26 0 -35z m50 10 c-3 -10 -5 -4 -5 12 0 17 2 24 5 18 2 -7 2
-21 0 -30z m-1490 -20 c-3 -10 -5 -4 -5 12 0 17 2 24 5 18 2 -7 2 -21 0 -30z
m1200 5 c-3 -7 -5 -2 -5 12 0 14 2 19 5 13 2 -7 2 -19 0 -25z m-1219 -25 c14
-12 14 -13 0 -13 -17 0 -29 21 -27 48 1 13 3 12 6 -3 3 -11 12 -26 21 -32z
m343 28 c6 11 9 8 9 -8 0 -13 -4 -23 -9 -23 -10 0 -22 25 -20 43 1 7 4 3 6 -7
4 -15 7 -16 14 -5z m816 -3 c-3 -8 -6 -5 -6 6 -1 11 2 17 5 13 3 -3 4 -12 1
-19z m170 -10 c-3 -7 -5 -2 -5 12 0 14 2 19 5 13 2 -7 2 -19 0 -25z m-1270
-10 c-3 -7 -5 -2 -5 12 0 14 2 19 5 13 2 -7 2 -19 0 -25z m59 -5 c-11 -11 -17
4 -9 23 7 18 8 18 11 1 2 -10 1 -21 -2 -24z m171 0 c-3 -10 -5 -4 -5 12 0 17
2 24 5 18 2 -7 2 -21 0 -30z m260 5 c-3 -7 -5 -2 -5 12 0 14 2 19 5 13 2 -7 2
-19 0 -25z m500 -5 c-3 -10 -5 -4 -5 12 0 17 2 24 5 18 2 -7 2 -21 0 -30z
m260 5 c-3 -8 -6 -5 -6 6 -1 11 2 17 5 13 3 -3 4 -12 1 -19z m520 0 c-3 -8 -6
-5 -6 6 -1 11 2 17 5 13 3 -3 4 -12 1 -19z m-582 -7 c-3 -6 -11 -11 -16 -11
-5 0 -4 6 3 14 14 16 24 13 13 -3z m172 -3 c-3 -8 -6 -5 -6 6 -1 11 2 17 5 13
3 -3 4 -12 1 -19z m498 0 c6 -4 2 -8 -7 -8 -10 0 -18 7 -18 17 0 9 3 12 8 7 4
-5 12 -12 17 -16z m-1725 -4 c0 -2 -7 -4 -15 -4 -8 0 -15 4 -15 10 0 5 7 7 15
4 8 -4 15 -8 15 -10z m50 6 c0 -5 -4 -10 -10 -10 -5 0 -10 5 -10 10 0 6 5 10
10 10 6 0 10 -4 10 -10z m170 -6 c0 -2 -7 -4 -15 -4 -8 0 -15 4 -15 10 0 5 7
7 15 4 8 -4 15 -8 15 -10z m410 0 c0 -2 -7 -4 -15 -4 -8 0 -15 4 -15 10 0 5 7
7 15 4 8 -4 15 -8 15 -10z m190 0 c0 -2 -7 -4 -15 -4 -8 0 -15 4 -15 10 0 5 7
7 15 4 8 -4 15 -8 15 -10z m170 0 c0 -2 -7 -4 -15 -4 -8 0 -15 4 -15 10 0 5 7
7 15 4 8 -4 15 -8 15 -10z m-663 0 c-3 -3 -12 -4 -19 -1 -8 3 -5 6 6 6 11 1
17 -2 13 -5z m1010 0 c-3 -3 -12 -4 -19 -1 -8 3 -5 6 6 6 11 1 17 -2 13 -5z"/>
<path d="M2395 2210 c-3 -5 -2 -10 4 -10 5 0 13 5 16 10 3 6 2 10 -4 10 -5 0
-13 -4 -16 -10z"/>
<path d="M3285 1990 c-3 -6 1 -7 9 -4 18 7 21 14 7 14 -6 0 -13 -4 -16 -10z"/>
<path d="M3238 1973 c7 -3 16 -2 19 1 4 3 -2 6 -13 5 -11 0 -14 -3 -6 -6z"/>
<path d="M2355 1441 c-34 -14 -126 -104 -146 -143 -18 -36 -18 -38 -2 -38 52
0 214 79 232 113 12 22 11 28 -5 51 -19 26 -43 31 -79 17z"/>
<path d="M2225 1360 c-3 -5 -1 -10 4 -10 6 0 11 5 11 10 0 6 -2 10 -4 10 -3 0
-8 -4 -11 -10z"/>
</g>
</svg>
